<svg width="40" height="40" viewBox="0 0 40 40" fill="none" xmlns="http://www.w3.org/2000/svg">
<rect width="40" height="40" rx="10" fill="#3895EB"/>
<path d="M2.52 19.728C2.52 20.024 2.476 20.244 2.388 20.388C2.3 20.532 2.156 20.64 1.956 20.712C2.156 20.784 2.3 20.892 2.388 21.036C2.476 21.18 2.52 21.4 2.52 21.696V24.66C2.52 25.3 2.824 25.62 3.432 25.62H3.756V26.328H3.312C2.216 26.328 1.668 25.796 1.668 24.732V21.684C1.668 21.276 1.488 21.072 1.128 21.072H0.72V20.352H1.128C1.488 20.352 1.668 20.148 1.668 19.74V16.692C1.668 15.628 2.216 15.096 3.312 15.096H3.756V15.804H3.432C2.824 15.804 2.52 16.124 2.52 16.764V19.728ZM5.37581 15.6H6.26381V23.232H10.9678V24H5.37581V15.6ZM17.8565 17.688V24H17.0405V22.848C16.8165 23.232 16.5085 23.532 16.1165 23.748C15.7245 23.956 15.2765 24.06 14.7725 24.06C13.9485 24.06 13.2965 23.832 12.8165 23.376C12.3445 22.912 12.1085 22.236 12.1085 21.348V17.688H12.9605V21.264C12.9605 21.928 13.1245 22.432 13.4525 22.776C13.7805 23.12 14.2485 23.292 14.8565 23.292C15.5205 23.292 16.0445 23.092 16.4285 22.692C16.8125 22.284 17.0045 21.72 17.0045 21V17.688H17.8565ZM26.0027 15.096V24H25.1867V22.752C24.9307 23.176 24.5907 23.5 24.1667 23.724C23.7507 23.948 23.2787 24.06 22.7507 24.06C22.1587 24.06 21.6227 23.924 21.1427 23.652C20.6627 23.38 20.2867 23 20.0147 22.512C19.7427 22.024 19.6067 21.468 19.6067 20.844C19.6067 20.22 19.7427 19.664 20.0147 19.176C20.2867 18.688 20.6627 18.312 21.1427 18.048C21.6227 17.776 22.1587 17.64 22.7507 17.64C23.2627 17.64 23.7227 17.748 24.1307 17.964C24.5467 18.172 24.8867 18.48 25.1507 18.888V15.096H26.0027ZM22.8227 23.304C23.2627 23.304 23.6587 23.204 24.0107 23.004C24.3707 22.796 24.6507 22.504 24.8507 22.128C25.0587 21.752 25.1627 21.324 25.1627 20.844C25.1627 20.364 25.0587 19.936 24.8507 19.56C24.6507 19.184 24.3707 18.896 24.0107 18.696C23.6587 18.488 23.2627 18.384 22.8227 18.384C22.3747 18.384 21.9707 18.488 21.6107 18.696C21.2587 18.896 20.9787 19.184 20.7707 19.56C20.5707 19.936 20.4707 20.364 20.4707 20.844C20.4707 21.324 20.5707 21.752 20.7707 22.128C20.9787 22.504 21.2587 22.796 21.6107 23.004C21.9707 23.204 22.3747 23.304 22.8227 23.304ZM30.9555 24.06C30.3475 24.06 29.7995 23.924 29.3115 23.652C28.8235 23.372 28.4395 22.988 28.1595 22.5C27.8795 22.012 27.7395 21.46 27.7395 20.844C27.7395 20.228 27.8795 19.676 28.1595 19.188C28.4395 18.7 28.8235 18.32 29.3115 18.048C29.7995 17.776 30.3475 17.64 30.9555 17.64C31.5635 17.64 32.1115 17.776 32.5995 18.048C33.0875 18.32 33.4675 18.7 33.7395 19.188C34.0195 19.676 34.1595 20.228 34.1595 20.844C34.1595 21.46 34.0195 22.012 33.7395 22.5C33.4675 22.988 33.0875 23.372 32.5995 23.652C32.1115 23.924 31.5635 24.06 30.9555 24.06ZM30.9555 23.304C31.4035 23.304 31.8035 23.204 32.1555 23.004C32.5155 22.796 32.7955 22.504 32.9955 22.128C33.1955 21.752 33.2955 21.324 33.2955 20.844C33.2955 20.364 33.1955 19.936 32.9955 19.56C32.7955 19.184 32.5155 18.896 32.1555 18.696C31.8035 18.488 31.4035 18.384 30.9555 18.384C30.5075 18.384 30.1035 18.488 29.7435 18.696C29.3915 18.896 29.1115 19.184 28.9035 19.56C28.7035 19.936 28.6035 20.364 28.6035 20.844C28.6035 21.324 28.7035 21.752 28.9035 22.128C29.1115 22.504 29.3915 22.796 29.7435 23.004C30.1035 23.204 30.5075 23.304 30.9555 23.304ZM37.9989 20.352V21.072H37.5909C37.2309 21.072 37.0509 21.276 37.0509 21.684V24.732C37.0509 25.796 36.5069 26.328 35.4189 26.328H34.9629V25.62H35.2869C35.8949 25.62 36.1989 25.3 36.1989 24.66V21.696C36.1989 21.4 36.2429 21.18 36.3309 21.036C36.4189 20.892 36.5629 20.784 36.7629 20.712C36.5629 20.64 36.4189 20.532 36.3309 20.388C36.2429 20.244 36.1989 20.024 36.1989 19.728V16.764C36.1989 16.124 35.8949 15.804 35.2869 15.804H34.9629V15.096H35.4189C36.5069 15.096 37.0509 15.628 37.0509 16.692V19.74C37.0509 20.148 37.2309 20.352 37.5909 20.352H37.9989Z" fill="white" fill-opacity="0.7"/>
</svg>
